:SAMPLES-PER-SECOND 30
:FRAME-RANGE 1-4244
:FULLY-SPECIFIED
:DEGREES
3316
root  55.5479 38.8767 -44.7477 -171.04 -10.8987 -179.052
RightUpLeg  -0.890335 -7.16538 1.41579
RightLeg  16.0052 -1.52873 -0.139904
RightFoot  -21.7087 0.334372 5.30574
RightToes  -1.33073e-015 0 -3.6325e-017
Spine  3.06597 1.04008 6.37113
Spine1  7.99725 2.35205 -5.21099
HEad  38.4514 29.1873 -4.31088
LeftShoulder1  1.70364 -2.84666 -21.5884
LeftArm  3.90961 -0.965579 -59.9112
LeftForeArm  -35.0618 -42.0678 -11.9434
LeftHand  0.553007 -1.10659 -9.80328
RightShoulder  2.60069 6.11878 21.3881
RightArm  50.1912 15.5893 73.185
RightForeArm  51.5339 56.5066 12.5301
RightHand  0.144777 -6.26258 -20.599
LeftUpLeg  -30.1174 -3.32178 -1.23285
LeftLeg  -1.39722 21.4814 2.24473
LeftFoot  -3.61453 0.263579 -3.58149
LeftToes  2.72522e-012 8.43823e-011 6.24977e-012
3317
root  55.3316 38.6668 -45.8813 -171.075 -11.5652 -179.061
RightUpLeg  0.851977 -7.83886 1.15815
RightLeg  16.7615 -0.89942 -0.073246
RightFoot  -22.6876 0.437741 5.95197
RightToes  -1.33073e-015 0 -3.6325e-017
Spine  3.24601 1.00497 5.80214
Spine1  7.80488 2.28057 -5.17017
HEad  38.1451 28.3321 -4.18249
LeftShoulder1  1.67742 -2.81094 -21.3037
LeftArm  4.46376 -0.869107 -60.1841
LeftForeArm  -35.0802 -42.0821 -11.9496
LeftHand  0.526348 -0.956103 -9.56651
RightShoulder  2.71202 6.42119 21.6985
RightArm  53.1056 15.942 74.487
RightForeArm  52.7057 56.0439 12.1869
RightHand  0.118696 -6.09229 -21.1547
LeftUpLeg  -30.94 -3.21463 -1.53227
LeftLeg  1.9632 19.0905 2.70962
LeftFoot  -3.26892 0.262352 -3.43974
LeftToes  2.72522e-012 8.43823e-011 6.24977e-012
3318
root  55.063 38.553 -47.0235 -171.316 -11.5189 -179.807
RightUpLeg  2.60877 -8.24908 -0.222793
RightLeg  18.1326 0.847929 0.155836
RightFoot  -23.4762 0.62005 7.32501
RightToes  -1.33073e-015 0 -3.6325e-017
Spine  3.81113 1.09738 4.30385
Spine1  7.97418 2.52353 -5.44024
HEad  38.3437 27.7047 -3.9043
LeftShoulder1  1.6424 -2.67269 -21.3545
LeftArm  4.82047 -0.56878 -60.048
LeftForeArm  -35.5592 -42.4178 -12.0967
LeftHand  0.506506 -0.0816366 -10.7957
RightShoulder  2.84176 6.75697 22.0855
RightArm  56.2893 16.6625 75.397
RightForeArm  52.4369 54.4575 11.3979
RightHand  0.0769191 -5.83627 -22.1159
LeftUpLeg  -31.2497 -4.13688 -2.33794
LeftLeg  5.95808 18.3202 4.11639
LeftFoot  0.447695 0.146641 -1.44696
LeftToes  2.72522e-012 8.43823e-011 6.24977e-012
3319
root  54.7842 38.4645 -48.1367 -170.911 -11.313 179.73
RightUpLeg  2.4287 -6.43534 -0.89617
RightLeg  21.5535 0.919889 0.185725
RightFoot  -23.1859 0.885019 10.0295
RightToes  -1.33073e-015 0 -3.6325e-017
Spine  3.86165 1.26967 3.11175
Spine1  8.14429 2.80443 -5.91939
HEad  38.8733 27.5608 -3.61696
LeftShoulder1  1.62229 -2.55286 -21.5871
LeftArm  4.87587 -0.23149 -59.5937
LeftForeArm  -36.4738 -42.6978 -12.2395
LeftHand  0.499102 -0.523711 -9.78631
RightShoulder  2.97149 7.03159 22.6259
RightArm  59.4752 17.6135 76.3057
RightForeArm  51.0627 50.6365 9.78935
RightHand  0.0336869 -5.59243 -23.2721
LeftUpLeg  -32.3257 -4.44355 -2.47592
LeftLeg  10.0908 17.9983 4.91787
LeftFoot  3.23706 0.105768 -0.980513
LeftToes  2.72522e-012 8.43823e-011 6.24977e-012
3320
root  54.4672 38.4505 -49.2612 -170.195 -12.2126 179.656
RightUpLeg  0.775297 -5.45285 -1.24921
RightLeg  26.9887 1.72647 0.729331
RightFoot  -21.5279 0.940933 12.1603
RightToes  -1.33073e-015 0 -3.6325e-017
Spine  3.12877 1.3899 2.96384
Spine1  8.76575 2.98536 -6.29814
HEad  39.6464 26.7168 -3.38346
LeftShoulder1  1.72029 -2.8555 -21.8338
LeftArm  4.81601 -0.539488 -59.2093
LeftForeArm  -38.4382 -41.625 -11.8974
LeftHand  0.579928 -0.721376 -10.9777
RightShoulder  2.96842 7.20668 22.0863
RightArm  60.4276 18.5461 78.3795
RightForeArm  44.3846 40.2174 6.67171
RightHand  -0.0942795 -4.95763 -23.3782
LeftUpLeg  -33.0172 -3.54969 -2.88641
LeftLeg  13.2563 16.3561 4.82118
LeftFoot  3.50661 0.269588 -2.23253
LeftToes  2.72522e-012 8.43823e-011 6.24977e-012
3321
root  54.1064 38.5372 -50.3482 -169.721 -13.6817 179.443
RightUpLeg  -1.82464 -5.91604 -2.21065
RightLeg  34.226 3.41991 2.25234
RightFoot  -17.3704 0.600215 13.5866
RightToes  -1.33073e-015 0 -3.6325e-017
Spine  2.90719 1.23578 3.0853
Spine1  9.14549 2.96645 -6.85188
HEad  41.0381 26.0275 -3.28613
LeftShoulder1  1.71259 -2.76176 -22.1572
LeftArm  5.25582 -1.1118 -59.0186
LeftForeArm  -38.2869 -40.245 -11.3847
LeftHand  0.483166 -0.467156 -9.57242
RightShoulder  2.93369 7.03661 22.2218
RightArm  62.5011 20.211 80.4507
RightForeArm  35.9878 26.1629 3.70954
RightHand  0.226526 -6.58198 -22.7303
LeftUpLeg  -32.5205 -3.33977 -3.84762
LeftLeg  14.6337 14.3356 4.51224
LeftFoot  3.3273 0.051634 -0.557995
LeftToes  2.72522e-012 8.43823e-011 6.24977e-012
3322
root  53.7559 38.6588 -51.422 -169.331 -14.7606 179.107
RightUpLeg  -6.03454 -5.7728 -3.07365
RightLeg  43.429 3.52188 3.26988
RightFoot  -12.3426 0.0307269 13.0954
RightToes  -1.33073e-015 0 -3.6325e-017
Spine  2.91576 1.19046 2.62634
Spine1  9.11819 2.86573 -6.62399
HEad  42.2204 26.2152 -3.74028
LeftShoulder1  1.71462 -2.79348 -22.0365
LeftArm  5.30195 -1.06522 -59.2147
LeftForeArm  -37.3509 -37.3941 -10.3772
LeftHand  0.597508 -1.15209 -10.5173
RightShoulder  2.93896 6.69719 23.2982
RightArm  15.4772 24.8559 79.2337
RightForeArm  72.8147 4.92943 14.2157
RightHand  0.687107 -10.1775 -17.1212
LeftUpLeg  -31.4727 -3.7207 -4.71407
LeftLeg  15.243 13.2379 4.34083
LeftFoot  3.50053 -0.369479 2.67343
LeftToes  2.72522e-012 8.43823e-011 6.24977e-012
3323
root  53.4382 38.714 -52.4294 -169.324 -15.9554 178.636
RightUpLeg  -10.4689 -5.30567 -3.62425
RightLeg  52.3838 2.14826 2.61639
RightFoot  -6.15873 -0.588921 12.0414
RightToes  -1.33073e-015 0 -3.6325e-017
Spine  3.70606 1.15225 1.7098
Spine1  8.82534 2.61679 -5.91884
HEad  42.3101 26.45 -4.14052
LeftShoulder1  1.73298 -2.86766 -21.9941
LeftArm  4.97696 -0.323356 -59.3591
LeftForeArm  -42.9729 -36.2703 -10.1916
LeftHand  1.16016 -5.29 -12.2441
RightShoulder  2.94132 6.60485 23.6125
RightArm  -8.72941 27.328 76.7034
RightForeArm  85.3303 -5.24162 7.06126
RightHand  0.531545 -11.4038 -10.9806
LeftUpLeg  -30.3612 -4.3376 -5.52242
LeftLeg  16.664 12.4573 4.48314
LeftFoot  2.25309 -0.51409 4.19674
LeftToes  2.72522e-012 8.43823e-011 6.24977e-012
3324
root  53.1251 38.6932 -53.3801 -169.382 -17.6546 178.006
RightUpLeg  -13.9766 -4.85998 -4.15051
RightLeg  58.8558 1.17905 1.6409
RightFoot  -5.40408 -0.65041 11.7908
RightToes  -1.33073e-015 0 -3.6325e-017
Spine  4.52904 1.12625 1.19947
Spine1  8.81439 2.53292 -5.91094
HEad  42.0232 25.8086 -3.99729
LeftShoulder1  1.70547 -2.79199 -21.8843
LeftArm  3.38447 -0.621035 -59.0902
LeftForeArm  -35.2163 -36.2354 -9.93146
LeftHand  0.739539 -2.02333 -11.4094
RightShoulder  2.84196 6.45784 23.0056
RightArm  -12.5557 29.0363 73.2797
RightForeArm  87.3052 -4.81983 5.01404
RightHand  0.62109 -12.4742 -10.8362
LeftUpLeg  -29.4391 -4.93413 -6.52702
LeftLeg  18.7775 11.3798 4.61825
LeftFoot  0.0102151 -0.427726 4.30122
LeftToes  2.72522e-012 8.43823e-011 6.24977e-012
3325
root  52.8022 38.6929 -54.3576 -169.295 -19.8657 177.594
RightUpLeg  -16.949 -4.61702 -4.45925
RightLeg  62.7491 0.524721 0.558513
RightFoot  -7.80725 -0.388422 10.8336
RightToes  -1.33073e-015 0 -3.6325e-017
Spine  4.85871 1.05632 1.26996
Spine1  8.86395 2.42279 -5.87056
HEad  42.3137 24.6563 -3.55276
LeftShoulder1  1.70963 -2.86093 -21.6237
LeftArm  3.25941 -1.70395 -59.0021
LeftForeArm  -28.4612 -35.0016 -9.29312
LeftHand  0.727232 -2.35896 -10.702
RightShoulder  2.7229 6.36265 21.9984
RightArm  -11.411 29.2018 68.9365
RightForeArm  86.9489 -5.05829 6.37663
RightHand  0.535548 -11.7821 -10.4461
LeftUpLeg  -28.4357 -5.60521 -7.21539
LeftLeg  20.4699 9.93651 4.42966
LeftFoot  -2.13408 -0.316719 4.09198
LeftToes  2.72522e-012 8.43823e-011 6.24977e-012
3326
root  52.4755 38.7635 -55.3943 -169.481 -21.7537 177.448
RightUpLeg  -19.5274 -3.84045 -4.56994
RightLeg  64.062 -0.265404 -1.18428
RightFoot  -8.03504 -0.300862 8.51265
RightToes  -1.33073e-015 0 -3.6325e-017
Spine  5.10445 0.950094 1.49789
Spine1  8.73992 2.29618 -5.74149
HEad  42.8992 24.3306 -3.15838
LeftShoulder1  1.76566 -3.10412 -21.4354
LeftArm  4.39518 -2.28146 -58.6684
LeftForeArm  -32.0685 -33.8573 -9.09522
LeftHand  0.67873 -2.07948 -10.3792
RightShoulder  2.63826 6.19415 21.578
RightArm  -9.96117 27.9679 64.6173
RightForeArm  85.252 -5.41094 8.09521
RightHand  0.484349 -10.856 -11.0463
LeftUpLeg  -26.7405 -6.32338 -7.47853
LeftLeg  21.432 8.97552 4.21999
LeftFoot  -4.04137 -0.255179 4.3807
LeftToes  2.72522e-012 8.43823e-011 6.24977e-012
3327
root  52.1877 38.8089 -56.4461 -169.71 -23.1358 177.354
RightUpLeg  -21.9377 -2.40189 -4.85534
RightLeg  63.4139 -0.884286 -2.49763
RightFoot  -9.61979 -0.178861 7.53739
RightToes  -1.33073e-015 0 -3.6325e-017
Spine  5.29188 0.778464 1.28099
Spine1  8.49408 2.07315 -5.56266
HEad  43.1616 24.7799 -2.93022
LeftShoulder1  1.74637 -3.09538 -21.154
LeftArm  5.0116 -2.69422 -57.9736
LeftForeArm  -31.46 -32.553 -8.69782
LeftHand  0.683557 -1.96454 -10.6282
RightShoulder  2.59117 5.94962 21.8154
RightArm  -9.40066 26.0226 60.5911
RightForeArm  81.6601 -5.74579 9.20583
RightHand  0.424142 -9.92739 -11.6696
LeftUpLeg  -24.9834 -6.67975 -7.58339
LeftLeg  22.3351 8.18642 4.04109
LeftFoot  -6.06327 -0.161787 4.30123
LeftToes  2.72522e-012 8.43823e-011 6.24977e-012
3328
root  51.918 38.8148 -57.4887 -169.867 -24.2982 177.11
RightUpLeg  -24.3386 -1.03787 -5.52759
RightLeg  61.3505 -1.69796 -3.89104
RightFoot  -12.0962 -0.0341303 7.28996
RightToes  -1.33073e-015 0 -3.6325e-017
Spine  5.56668 0.513849 0.703321
Spine1  7.9965 1.72054 -5.2894
HEad  42.4926 25.5914 -3.30482
LeftShoulder1  1.71515 -3.06532 -20.7679
LeftArm  5.18378 -2.90352 -57.3146
LeftForeArm  -25.6019 -31.3536 -8.13399
LeftHand  0.577354 -1.98811 -8.92796
RightShoulder  2.51311 5.56972 22.1507
RightArm  -10.5956 24.0606 57.5112
RightForeArm  78.3566 -5.86666 9.07012
RightHand  0.333301 -8.97072 -11.7548
LeftUpLeg  -23.3276 -6.77743 -7.7775
LeftLeg  23.3639 7.31345 3.80703
LeftFoot  -8.12221 -0.0621311 3.9502
LeftToes  2.72522e-012 8.43823e-011 6.24977e-012
3329
root  51.6466 38.8211 -58.5391 -170.104 -25.4155 177.212
RightUpLeg  -26.7234 -0.00701423 -6.11559
RightLeg  57.9045 -2.45384 -4.66819
RightFoot  -12.8538 0.00275945 6.81702
RightToes  -1.33073e-015 0 -3.6325e-017
Spine  5.74591 0.227004 0.597504
Spine1  7.40672 1.38342 -4.96925
HEad  41.4283 26.2693 -4.07464
LeftShoulder1  1.71987 -3.09273 -20.7235
LeftArm  6.46629 -3.5089 -56.1771
LeftForeArm  -18.3207 -29.9596 -7.44617
LeftHand  0.440682 -1.71886 -7.06433
RightShoulder  2.43913 5.26792 22.2888
RightArm  -13.0281 21.9762 55.1675
RightForeArm  75.3041 -5.84933 8.1555
RightHand  0.240797 -7.99018 -11.9215
LeftUpLeg  -21.6997 -6.66315 -7.57984
LeftLeg  24.3183 6.37535 3.49499
LeftFoot  -10.1651 0.0240016 3.61775
LeftToes  2.72522e-012 8.43823e-011 6.24977e-012
3330
root  51.372 38.8314 -59.5966 -170.409 -26.4473 177.345
RightUpLeg  -28.6798 0.709253 -6.93378
RightLeg  52.8551 -2.79549 -4.33514
RightFoot  -12.8072 -0.00306385 6.55362
RightToes  -1.33073e-015 0 -3.6325e-017
Spine  5.81698 -0.015705 0.757649
Spine1  6.9911 1.17718 -4.84141
HEad  40.3839 26.5053 -4.71464
LeftShoulder1  1.75832 -3.28415 -20.5131
LeftArm  9.40281 -4.7602 -55.6703
LeftForeArm  -11.2784 -27.3211 -6.45578
LeftHand  0.301105 -0.981405 -5.41703
RightShoulder  2.39374 5.1069 22.2916
RightArm  -15.8132 19.7542 53.295
RightForeArm  72.5993 -5.77524 7.00736
RightHand  0.158506 -7.12626 -12.1576
LeftUpLeg  -19.9117 -6.58277 -7.30033
LeftLeg  25.0477 5.56975 3.19161
LeftFoot  -11.97 0.0906168 3.4005
LeftToes  2.72522e-012 8.43823e-011 6.24977e-012
